<svg xmlns="http://www.w3.org/2000/svg" width="1600" height="900" viewBox="0 0 1600 900"><defs><linearGradient id="sky" x1="0" y1="0" x2="0" y2="1"><stop stop-color="#171739"/><stop offset="1" stop-color="#522d72"/></linearGradient><linearGradient id="ground" x1="0" y1="0" x2="0" y2="1"><stop stop-color="#2a2143"/><stop offset="1" stop-color="#151126"/></linearGradient><radialGradient id="glow"><stop stop-color="#b477ff" stop-opacity=".24"/><stop offset="1" stop-color="#b477ff" stop-opacity="0"/></radialGradient></defs><rect width="1600" height="900" fill="url(#sky)"/><path d="M0 0V470L190 330 330 430 520 250 730 420 960 235 1180 420 1420 290 1600 430V0Z" fill="#17132e"/><g fill="#b477ff" opacity=".65"><path d="M180 430 250 170 320 430Z"/><path d="M420 430 480 250 540 430Z"/><path d="M1120 430 1200 150 1280 430Z"/><path d="M1350 430 1415 245 1480 430Z"/></g><g fill="#e9c6ff" opacity=".45"><path d="M265 420 300 280 335 420Z"/><path d="M1280 420 1320 260 1360 420Z"/></g><rect y="420" width="1600" height="480" fill="url(#ground)"/><ellipse cx="800" cy="600" rx="760" ry="330" fill="url(#glow)"/><path d="M800 455V860" stroke="#b477ff" stroke-width="4" opacity=".28"/><ellipse cx="180" cy="570" rx="92" ry="34" fill="#071421" opacity=".22" stroke="#b477ff" stroke-width="5"/><ellipse cx="180" cy="570" rx="72" ry="24" fill="none" stroke="#fff5c4" stroke-width="2" opacity=".45"/><ellipse cx="180" cy="745" rx="92" ry="34" fill="#071421" opacity=".22" stroke="#b477ff" stroke-width="5"/><ellipse cx="180" cy="745" rx="72" ry="24" fill="none" stroke="#fff5c4" stroke-width="2" opacity=".45"/><ellipse cx="420" cy="570" rx="92" ry="34" fill="#071421" opacity=".22" stroke="#b477ff" stroke-width="5"/><ellipse cx="420" cy="570" rx="72" ry="24" fill="none" stroke="#fff5c4" stroke-width="2" opacity=".45"/><ellipse cx="420" cy="745" rx="92" ry="34" fill="#071421" opacity=".22" stroke="#b477ff" stroke-width="5"/><ellipse cx="420" cy="745" rx="72" ry="24" fill="none" stroke="#fff5c4" stroke-width="2" opacity=".45"/><ellipse cx="660" cy="570" rx="92" ry="34" fill="#071421" opacity=".22" stroke="#b477ff" stroke-width="5"/><ellipse cx="660" cy="570" rx="72" ry="24" fill="none" stroke="#fff5c4" stroke-width="2" opacity=".45"/><ellipse cx="660" cy="745" rx="92" ry="34" fill="#071421" opacity=".22" stroke="#b477ff" stroke-width="5"/><ellipse cx="660" cy="745" rx="72" ry="24" fill="none" stroke="#fff5c4" stroke-width="2" opacity=".45"/><ellipse cx="940" cy="570" rx="92" ry="34" fill="#071421" opacity=".22" stroke="#b477ff" stroke-width="5"/><ellipse cx="940" cy="570" rx="72" ry="24" fill="none" stroke="#fff5c4" stroke-width="2" opacity=".45"/><ellipse cx="940" cy="745" rx="92" ry="34" fill="#071421" opacity=".22" stroke="#b477ff" stroke-width="5"/><ellipse cx="940" cy="745" rx="72" ry="24" fill="none" stroke="#fff5c4" stroke-width="2" opacity=".45"/><ellipse cx="1180" cy="570" rx="92" ry="34" fill="#071421" opacity=".22" stroke="#b477ff" stroke-width="5"/><ellipse cx="1180" cy="570" rx="72" ry="24" fill="none" stroke="#fff5c4" stroke-width="2" opacity=".45"/><ellipse cx="1180" cy="745" rx="92" ry="34" fill="#071421" opacity=".22" stroke="#b477ff" stroke-width="5"/><ellipse cx="1180" cy="745" rx="72" ry="24" fill="none" stroke="#fff5c4" stroke-width="2" opacity=".45"/><ellipse cx="1420" cy="570" rx="92" ry="34" fill="#071421" opacity=".22" stroke="#b477ff" stroke-width="5"/><ellipse cx="1420" cy="570" rx="72" ry="24" fill="none" stroke="#fff5c4" stroke-width="2" opacity=".45"/><ellipse cx="1420" cy="745" rx="92" ry="34" fill="#071421" opacity=".22" stroke="#b477ff" stroke-width="5"/><ellipse cx="1420" cy="745" rx="72" ry="24" fill="none" stroke="#fff5c4" stroke-width="2" opacity=".45"/><path d="M0 860Q420 810 800 845Q1190 805 1600 860V900H0Z" fill="#040b12" opacity=".42"/></svg>