<svg xmlns="http://www.w3.org/2000/svg" viewBox="0 0 250 250"><defs><radialGradient id="g"><stop stop-color="#a99ed8"/><stop offset="1" stop-color="#2e7c8a"/></radialGradient></defs><rect width="250" height="250" rx="32" fill="url(#g)"/><circle cx="125" cy="126" r="103" fill="none" stroke="#cce8ed" stroke-opacity=".45" stroke-width="5"/><path d="M78 53 Q125 -4 173 53 L163 115 H87 Z" fill="#374f7e"/><path d="M87 87 Q125 22 163 87 L150 147 H100 Z" fill="#d9a9aa"/><path d="M70 48 Q125 -15 180 48 Q185 65 170 102 Q155 30 125 38 Q93 34 80 105 Z" fill="#d6d3e8"/><path d="M104 116 L125 156 L145 116 Q182 122 203 228 H46 Q62 123 104 116" fill="#5799a5" stroke="#bed7cd" stroke-width="5"/><path d="M60 156 Q30 170 27 230 M191 158 Q225 178 225 230" stroke="#89cad3" stroke-width="22" fill="none"/></svg>